# xmcd
# 
# Track frame offsets:
#     150
#     13900
#     33955
#     44740
#     56775
#     69105
#     83595
#     93962
#     108180
#     118112
# 
# Disc length: 1757
# 
# Revision: 3
# Processed by: cddbd v1.5.2PL0 Copyright (c) Steve Scherf et al.
# Submitted via: BonkEnc v1.0.5
# 
DISCID=7b06db0a
DTITLE=George Strait - Merry Christmas Strait To You
DYEAR=1986
DGENRE=Country
TTITLE0=White Christmas
TTITLE1=There's A New Kid In Town
TTITLE2=Winter Wonderland
TTITLE3=Merry Christmas Strait To You
TTITLE4=Away In A Manger
TTITLE5=For Christ'a Sake, It's Christmas
TTITLE6=Frosty The Snowman
TTITLE7=When It's Christmas Time In Texas
TTITLE8=Santa Claus Is Coming To Town
TTITLE9=What A Merry Christmas This Could Be
EXTD=
EXTT0=
EXTT1=
EXTT2=
EXTT3=
EXTT4=
EXTT5=
EXTT6=
EXTT7=
EXTT8=
EXTT9=
PLAYORDER=
